<mxfile host="app.diagrams.net" modified="2023-09-05T10:56:34.957Z" agent="Mozilla/5.0 (Windows NT 10.0; Win64; x64) AppleWebKit/537.36 (KHTML, like Gecko) Chrome/116.0.0.0 Safari/537.36" version="21.7.2" etag="I08F_n6qX97XdvmCaetO" type="github">
  <diagram name="페이지-1" id="VWcSBXM9WPy8ee-usds2">
    <mxGraphModel>
      <root>
        <mxCell id="0" />
        <mxCell id="1" parent="0" />
      </root>
    </mxGraphModel>
  </diagram>
</mxfile>
